{
  "accessors": [
    {
      "bufferView": 2,
      "componentType": 5126,
      "count": 65532,
      "max": [
        0.7459816932678223,
        -0.08716951310634613,
        2.3537089824676514
      ],
      "min": [
        -3.6624670028686523,
        -3.570918083190918,
        -2.060516119003296
      ],
      "type": "VEC3"
    },
    {
      "bufferView": 2,
      "byteOffset": 786384,
      "componentType": 5126,
      "count": 65532,
      "max": [
        0.9999875426292419,
        0.9999972581863403,
        0.999588668346405
      ],
      "min": [
        -0.9997884035110474,
        -0.9999992251396179,
        -0.9998233914375305
      ],
      "type": "VEC3"
    },
    {
      "bufferView": 1,
      "componentType": 5126,
      "count": 65532,
      "max": [
        0.9703159928321838,
        0.9830129742622375
      ],
      "min": [
        0.0026759998872876167,
        0.0005719999899156392
      ],
      "type": "VEC2"
    },
    {
      "bufferView": 0,
      "componentType": 5125,
      "count": 311670,
      "type": "SCALAR"
    },
    {
      "bufferView": 2,
      "byteOffset": 1572768,
      "componentType": 5126,
      "count": 65532,
      "max": [
        0.7377722263336182,
        -0.09801854938268661,
        2.37083101272583
      ],
      "min": [
        -3.6540920734405518,
        -3.5490050315856934,
        -2.044145107269287
      ],
      "type": "VEC3"
    },
    {
      "bufferView": 2,
      "byteOffset": 2359152,
      "componentType": 5126,
      "count": 65532,
      "max": [
        0.9999740123748779,
        0.9999963641166687,
        0.9999951720237732
      ],
      "min": [
        -0.9999702572822571,
        -0.9999971985816956,
        -0.9978731274604797
      ],
      "type": "VEC3"
    },
    {
      "bufferView": 1,
      "byteOffset": 524256,
      "componentType": 5126,
      "count": 65532,
      "max": [
        0.9644060134887695,
        0.9998949766159058
      ],
      "min": [
        0.001588999992236495,
        0.00011899999663000926
      ],
      "type": "VEC2"
    },
    {
      "bufferView": 0,
      "byteOffset": 1246680,
      "componentType": 5125,
      "count": 316803,
      "type": "SCALAR"
    },
    {
      "bufferView": 2,
      "byteOffset": 3145536,
      "componentType": 5126,
      "count": 65532,
      "max": [
        0.7480428218841553,
        -0.0741405114531517,
        2.370712995529175
      ],
      "min": [
        -3.6583828926086426,
        -3.562582015991211,
        -2.0614869594573975
      ],
      "type": "VEC3"
    },
    {
      "bufferView": 2,
      "byteOffset": 3931920,
      "componentType": 5126,
      "count": 65532,
      "max": [
        0.9999990463256836,
        0.9999815821647644,
        0.9999852180480957
      ],
      "min": [
        -0.9999766945838928,
        -0.999993622303009,
        -0.9999859929084778
      ],
      "type": "VEC3"
    },
    {
      "bufferView": 1,
      "byteOffset": 1048512,
      "componentType": 5126,
      "count": 65532,
      "max": [
        0.9703519940376282,
        0.9978129863739014
      ],
      "min": [
        1.8000000636675395e-05,
        0.0028780000284314156
      ],
      "type": "VEC2"
    },
    {
      "bufferView": 0,
      "byteOffset": 2513892,
      "componentType": 5125,
      "count": 305616,
      "type": "SCALAR"
    },
    {
      "bufferView": 2,
      "byteOffset": 4718304,
      "componentType": 5126,
      "count": 53223,
      "max": [
        0.7479481101036072,
        -0.07621681690216064,
        2.3674099445343018
      ],
      "min": [
        -3.661876916885376,
        -3.570580005645752,
        -2.0614869594573975
      ],
      "type": "VEC3"
    },
    {
      "bufferView": 2,
      "byteOffset": 5356980,
      "componentType": 5126,
      "count": 53223,
      "max": [
        0.9997801780700684,
        1.0,
        0.9999951720237732
      ],
      "min": [
        -0.9998282194137573,
        -1.0,
        -0.9999783039093018
      ],
      "type": "VEC3"
    },
    {
      "bufferView": 1,
      "byteOffset": 1572768,
      "componentType": 5126,
      "count": 53223,
      "max": [
        0.9700210094451904,
        0.9981899857521057
      ],
      "min": [
        0.0,
        0.0
      ],
      "type": "VEC2"
    },
    {
      "bufferView": 0,
      "byteOffset": 3736356,
      "componentType": 5125,
      "count": 153096,
      "type": "SCALAR"
    }
  ],
  "asset": {
    "extras": {
      "author": "Moshe Caine (https://sketchfab.com/mosheca)",
      "license": "CC-BY-4.0 (http://creativecommons.org/licenses/by/4.0/)",
      "source": "https://sketchfab.com/3d-models/mushroom-cd881b6c9e1f4691b1c6c0d4cbb5feb7",
      "title": "Mushroom"
    },
    "generator": "Sketchfab-12.68.0",
    "version": "2.0"
  },
  "bufferViews": [
    {
      "buffer": 0,
      "byteLength": 4348740,
      "name": "floatBufferViews",
      "target": 34963
    },
    {
      "buffer": 0,
      "byteLength": 1998552,
      "byteOffset": 4348740,
      "byteStride": 8,
      "name": "floatBufferViews",
      "target": 34962
    },
    {
      "buffer": 0,
      "byteLength": 5995656,
      "byteOffset": 6347292,
      "byteStride": 12,
      "name": "floatBufferViews",
      "target": 34962
    }
  ],
  "buffers": [
    {
      "byteLength": 12342948,
      "uri": "scene.bin"
    }
  ],
  "images": [
    {
      "uri": "textures/mushroom_baseColor.jpeg"
    }
  ],
  "materials": [
    {
      "doubleSided": true,
      "name": "mushroom",
      "pbrMetallicRoughness": {
        "baseColorTexture": {
          "index": 0
        },
        "metallicFactor": 0.0
      }
    }
  ],
  "meshes": [
    {
      "name": "Object_0",
      "primitives": [
        {
          "attributes": {
            "NORMAL": 1,
            "POSITION": 0,
            "TEXCOORD_0": 2
          },
          "indices": 3,
          "material": 0,
          "mode": 4
        }
      ]
    },
    {
      "name": "Object_1",
      "primitives": [
        {
          "attributes": {
            "NORMAL": 5,
            "POSITION": 4,
            "TEXCOORD_0": 6
          },
          "indices": 7,
          "material": 0,
          "mode": 4
        }
      ]
    },
    {
      "name": "Object_2",
      "primitives": [
        {
          "attributes": {
            "NORMAL": 9,
            "POSITION": 8,
            "TEXCOORD_0": 10
          },
          "indices": 11,
          "material": 0,
          "mode": 4
        }
      ]
    },
    {
      "name": "Object_3",
      "primitives": [
        {
          "attributes": {
            "NORMAL": 13,
            "POSITION": 12,
            "TEXCOORD_0": 14
          },
          "indices": 15,
          "material": 0,
          "mode": 4
        }
      ]
    }
  ],
  "nodes": [
    {
      "children": [
        1
      ],
      "matrix": [
        1.0,
        0.0,
        0.0,
        0.0,
        0.0,
        -1.0,
        -4.440892098500626e-16,
        0.0,
        0.0,
        4.440892098500626e-16,
        -1.0,
        0.0,
        0.0,
        -1.667861938476563,
        1.977198719978332,
        1.0
      ],
      "name": "Sketchfab_model"
    },
    {
      "children": [
        2,
        3,
        4,
        5
      ],
      "name": "mushroom.obj.cleaner.materialmerger.gles"
    },
    {
      "mesh": 0,
      "name": "Object_2"
    },
    {
      "mesh": 1,
      "name": "Object_3"
    },
    {
      "mesh": 2,
      "name": "Object_4"
    },
    {
      "mesh": 3,
      "name": "Object_5"
    }
  ],
  "samplers": [
    {
      "magFilter": 9729,
      "minFilter": 9987,
      "wrapS": 10497,
      "wrapT": 10497
    }
  ],
  "scene": 0,
  "scenes": [
    {
      "name": "Sketchfab_Scene",
      "nodes": [
        0
      ]
    }
  ],
  "textures": [
    {
      "sampler": 0,
      "source": 0
    }
  ]
}
