# Blender v3.0.0 OBJ File: 'cartoon_mushrooms.blend'
# www.blender.org
mtllib Mushroom_3.mtl
o Mushroom_3
v 0.001917 -0.001517 -0.012103
v 0.001646 0.068542 -0.010395
v 0.008665 -0.001517 -0.008665
v 0.007442 0.068542 -0.007442
v 0.012103 -0.001517 -0.001917
v 0.010395 0.068542 -0.001646
v 0.010919 -0.001517 0.005563
v 0.009377 0.068542 0.004778
v 0.005563 -0.001517 0.010918
v 0.004778 0.068542 0.009377
v -0.001917 -0.001517 0.012103
v -0.001646 0.068542 0.010395
v -0.008665 -0.001517 0.008665
v -0.007442 0.068542 0.007442
v -0.012103 -0.001517 0.001917
v -0.010395 0.068542 0.001646
v -0.010918 -0.001517 -0.005563
v -0.009377 0.068542 -0.004778
v -0.005563 -0.001517 -0.010919
v -0.004778 0.068542 -0.009377
v -0.001934 0.014436 -0.012214
v 0.005614 0.014436 -0.011018
v 0.011018 0.014436 -0.005614
v 0.012214 0.014436 0.001934
v 0.008744 0.014436 0.008744
v 0.001934 0.014436 0.012214
v -0.005614 0.014436 0.011018
v -0.011018 0.014436 0.005614
v -0.012214 0.014436 -0.001935
v -0.008744 0.014436 -0.008744
v 0.004144 0.007077 -0.012753
v 0.007882 0.007077 -0.010848
v 0.010848 0.007077 -0.007882
v 0.012753 0.007077 -0.004144
v 0.013409 0.007077 -0.000000
v 0.012753 0.007077 0.004144
v 0.010848 0.007077 0.007882
v 0.007882 0.007077 0.010848
v 0.004144 0.007077 0.012753
v -0.000000 0.007077 0.013409
v -0.004144 0.007077 0.012753
v -0.007882 0.007077 0.010848
v -0.010848 0.007077 0.007882
v -0.012753 0.007077 0.004144
v -0.013409 0.007077 -0.000000
v -0.012753 0.007077 -0.004144
v -0.010848 0.007077 -0.007882
v -0.007882 0.007077 -0.010848
v -0.004144 0.007077 -0.012753
v 0.000000 0.007077 -0.013409
v -0.001134 -0.007138 -0.007162
v 0.003292 -0.007138 -0.006461
v 0.006461 -0.007138 -0.003292
v 0.007162 -0.007138 0.001134
v 0.005128 -0.007138 0.005128
v 0.001134 -0.007138 0.007162
v -0.003292 -0.007138 0.006461
v -0.006461 -0.007138 0.003292
v -0.007162 -0.007138 -0.001134
v -0.005128 -0.007138 -0.005128
v 0.000000 -0.010334 -0.000000
v -0.025474 0.037678 -0.035061
v -0.035061 0.037678 -0.025474
v -0.041217 0.037678 -0.013392
v -0.043338 0.037678 -0.000000
v -0.041217 0.037678 0.013392
v -0.035061 0.037678 0.025474
v -0.025474 0.037678 0.035061
v -0.013392 0.037678 0.041217
v -0.000000 0.037678 0.043338
v 0.013392 0.037678 0.041217
v 0.025474 0.037678 0.035061
v 0.035061 0.037678 0.025474
v 0.041217 0.037678 0.013392
v 0.043338 0.037678 0.000000
v 0.041217 0.037678 -0.013392
v 0.035061 0.037678 -0.025474
v 0.025474 0.037678 -0.035061
v 0.013392 0.037678 -0.041217
v 0.000000 0.037678 -0.043338
v -0.013392 0.037678 -0.041217
v -0.022202 0.073922 -0.030558
v -0.030558 0.073922 -0.022202
v -0.035923 0.073922 -0.011672
v -0.037772 0.073922 -0.000000
v -0.035923 0.073922 0.011672
v -0.030558 0.073922 0.022202
v -0.022202 0.073922 0.030558
v -0.011672 0.073922 0.035923
v -0.000000 0.073922 0.037772
v 0.011672 0.073922 0.035923
v 0.022202 0.073922 0.030558
v 0.030558 0.073922 0.022202
v 0.035923 0.073922 0.011672
v 0.037772 0.073922 0.000000
v 0.035923 0.073922 -0.011672
v 0.030558 0.073922 -0.022202
v 0.022202 0.073922 -0.030558
v 0.011672 0.073922 -0.035923
v 0.000000 0.073922 -0.037772
v -0.011672 0.073922 -0.035923
v -0.012758 0.087914 -0.017560
v -0.017560 0.087914 -0.012758
v -0.020643 0.087914 -0.006707
v -0.021705 0.087914 -0.000000
v -0.020643 0.087914 0.006707
v -0.017560 0.087914 0.012758
v -0.012758 0.087914 0.017560
v -0.006707 0.087914 0.020643
v -0.000000 0.087914 0.021705
v 0.006707 0.087914 0.020643
v 0.012758 0.087914 0.017560
v 0.017560 0.087914 0.012758
v 0.020643 0.087914 0.006707
v 0.021705 0.087914 -0.000000
v 0.020643 0.087914 -0.006707
v 0.017560 0.087914 -0.012758
v 0.012758 0.087914 -0.017560
v 0.006707 0.087914 -0.020643
v 0.000000 0.087914 -0.021705
v -0.006707 0.087914 -0.020643
v 0.000000 0.092190 -0.000000
v 0.027926 0.051243 0.038437
v 0.014682 0.051243 -0.045185
v -0.045185 0.051243 -0.014682
v 0.014682 0.051243 0.045185
v 0.027926 0.051243 -0.038437
v -0.038437 0.051243 -0.027926
v -0.000000 0.051243 0.047511
v 0.038437 0.051243 -0.027926
v -0.027926 0.051243 -0.038437
v -0.014682 0.051243 0.045185
v 0.045185 0.051243 -0.014682
v -0.000000 0.051243 -0.047511
v -0.014681 0.051243 -0.045185
v -0.027926 0.051243 0.038437
v 0.047511 0.051243 0.000000
v -0.045185 0.051243 0.014682
v -0.038437 0.051243 0.027926
v 0.038437 0.051243 0.027926
v 0.045185 0.051243 0.014682
v -0.047511 0.051243 -0.000000
vt 0.067223 0.707450
vt 0.277760 0.724431
vt 0.066853 0.737130
vt 0.277757 0.749521
vt 0.066860 0.766888
vt 0.278305 0.774607
vt 0.067710 0.796465
vt 0.279408 0.799967
vt 0.762585 0.464064
vt 0.736109 0.674368
vt 0.732657 0.462886
vt 0.711026 0.673270
vt 0.702918 0.462183
vt 0.685937 0.672720
vt 0.673238 0.461814
vt 0.660847 0.672717
vt 0.643480 0.461821
vt 0.635761 0.673266
vt 0.613903 0.462671
vt 0.610401 0.674368
vt 0.069103 0.647783
vt 0.279408 0.674259
vt 0.067925 0.677711
vt 0.278310 0.699342
vt 0.835968 0.198814
vt 0.994690 0.166995
vt 0.994589 0.228020
vt 0.396049 0.671328
vt 0.396049 0.705776
vt 0.368798 0.688552
vt 0.039748 0.699298
vt 0.039519 0.714208
vt 0.039971 0.684353
vt 0.040167 0.669277
vt 0.040351 0.653974
vt 0.040452 0.637999
vt 0.635800 0.433681
vt 0.619803 0.433561
vt 0.651126 0.433893
vt 0.666261 0.434055
vt 0.681232 0.434271
vt 0.696160 0.434480
vt 0.711070 0.434709
vt 0.726015 0.434932
vt 0.741091 0.435128
vt 0.756394 0.435312
vt 0.772369 0.435413
vt 0.038720 0.774568
vt 0.038601 0.790565
vt 0.038932 0.759242
vt 0.039094 0.744106
vt 0.039310 0.729136
vt 0.007270 0.720778
vt 0.006548 0.750518
vt 0.005310 0.780383
vt 0.777554 0.401816
vt 0.748653 0.402909
vt 0.719205 0.402742
vt 0.689590 0.402231
vt 0.659850 0.401508
vt 0.629985 0.400271
vt 0.006855 0.632814
vt 0.007948 0.661715
vt 0.007782 0.691163
vt 0.317280 0.688552
vt 0.322199 0.673412
vt 0.343039 0.688552
vt 0.343039 0.744290
vt 0.335079 0.713051
vt 0.350999 0.713051
vt 0.290028 0.705776
vt 0.290028 0.671328
vt 0.375801 0.643459
vt 0.363878 0.673412
vt 0.375801 0.733645
vt 0.363878 0.703693
vt 0.310276 0.733645
vt 0.322199 0.703693
vt 0.310277 0.643459
vt 0.335079 0.664054
vt 0.343039 0.632814
vt 0.350999 0.664054
vt 0.774937 0.216040
vt 0.791459 0.228719
vt 0.714279 0.370681
vt 0.665094 0.335164
vt 0.829081 0.218238
vt 0.975963 0.285818
vt 0.940005 0.335099
vt 0.792867 0.165512
vt 0.713844 0.024254
vt 0.771903 0.005480
vt 0.768858 0.196323
vt 0.629347 0.285818
vt 0.610401 0.228219
vt 0.812044 0.229726
vt 0.890942 0.370871
vt 0.832896 0.389565
vt 0.830045 0.178971
vt 0.975748 0.109276
vt 0.813561 0.166319
vt 0.832682 0.005310
vt 0.890684 0.024272
vt 0.775770 0.176984
vt 0.610401 0.167248
vt 0.628934 0.109448
vt 0.772173 0.389650
vt 0.664812 0.060121
vt 0.939949 0.059838
vt 0.337271 0.382721
vt 0.392408 0.393889
vt 0.365446 0.479686
vt 0.326584 0.468604
vt 0.317613 0.161824
vt 0.278508 0.158899
vt 0.292742 0.088255
vt 0.315975 0.090828
vt 0.102510 0.181768
vt 0.042449 0.139781
vt 0.133484 0.058264
vt 0.166012 0.098708
vt 0.447339 0.414839
vt 0.403221 0.499430
vt 0.033809 0.490518
vt 0.083554 0.456137
vt 0.142590 0.530246
vt 0.110724 0.567126
vt 0.426255 0.222807
vt 0.375536 0.238669
vt 0.356127 0.156955
vt 0.393351 0.144585
vt 0.502581 0.445735
vt 0.439079 0.528795
vt 0.130593 0.427550
vt 0.176249 0.502684
vt 0.322451 0.246302
vt 0.562642 0.487721
vt 0.471607 0.569239
vt 0.178835 0.404698
vt 0.211740 0.482919
vt 0.267820 0.244782
vt 0.571283 0.136987
vt 0.521537 0.171368
vt 0.462502 0.097258
vt 0.494368 0.060378
vt 0.229555 0.388835
vt 0.248964 0.470549
vt 0.212683 0.233615
vt 0.239645 0.147817
vt 0.474498 0.199955
vt 0.428842 0.124820
vt 0.282640 0.381202
vt 0.287479 0.465680
vt 0.157752 0.212664
vt 0.201871 0.128073
vt 0.312349 0.539248
vt 0.334756 0.547622
vt 0.289746 0.622193
vt 0.244069 0.548548
vt 0.224116 0.562909
vt 0.339044 0.087703
vt 0.207248 0.582999
vt 0.372303 0.582217
vt 0.355205 0.561912
vt 0.361022 0.078956
vt 0.194902 0.609098
vt 0.220929 0.019195
vt 0.232788 0.045286
vt 0.384162 0.608309
vt 0.249886 0.065592
vt 0.397843 0.044505
vt 0.410190 0.018406
vt 0.289116 0.536676
vt 0.270336 0.079881
vt 0.380975 0.064595
vt 0.266047 0.539801
vt 0.408983 0.330161
vt 0.473705 0.351726
vt 0.315346 0.005310
vt 0.005310 0.435579
vt 0.053310 0.406516
vt 0.448371 0.277986
vt 0.389745 0.297804
vt 0.536801 0.381884
vt 0.102922 0.376185
vt 0.327046 0.308441
vt 0.599781 0.416837
vt 0.156719 0.349518
vt 0.261866 0.308441
vt 0.599781 0.191926
vt 0.551780 0.220989
vt 0.215346 0.329699
vt 0.196108 0.297343
vt 0.502169 0.251320
vt 0.278045 0.319062
vt 0.131386 0.275778
vt 0.343224 0.319062
vt 0.068290 0.245619
vt 0.005310 0.210666
vn -0.1555 0.1106 -0.9816
vn 0.0398 -0.9670 -0.2515
vn 0.4512 0.1106 -0.8855
vn 0.1800 -0.9670 -0.1800
vn 0.8855 0.1106 -0.4512
vn 0.2515 -0.9670 -0.0398
vn 0.9816 0.1106 0.1555
vn 0.2269 -0.9670 0.1156
vn 0.7028 0.1106 0.7028
vn 0.1156 -0.9670 0.2269
vn 0.1555 0.1106 0.9816
vn -0.0398 -0.9670 0.2515
vn -0.4512 0.1106 0.8855
vn -0.1800 -0.9670 0.1800
vn -0.8855 0.1106 0.4512
vn -0.2515 -0.9670 0.0398
vn -0.9816 0.1106 -0.1555
vn -0.2269 -0.9670 -0.1156
vn -0.7028 0.1106 -0.7028
vn -0.1156 -0.9670 -0.2269
vn 0.1970 -0.9431 -0.2677
vn 0.2677 -0.9431 -0.1970
vn 0.9012 -0.4093 -0.1427
vn 0.8129 -0.4093 0.4142
vn 0.5966 -0.7970 0.0945
vn -0.3107 0.0059 -0.9505
vn 0.0017 0.0059 -1.0000
vn -0.5864 0.0059 -0.8100
vn -0.8100 0.0059 -0.5864
vn -0.9505 0.0059 -0.3107
vn -1.0000 0.0059 0.0017
vn -0.9516 0.0059 0.3074
vn -0.8080 0.0059 0.5892
vn -0.5892 0.0059 0.8080
vn -0.3074 0.0059 0.9516
vn -0.0017 0.0059 1.0000
vn 0.3107 0.0059 0.9505
vn 0.5864 0.0059 0.8100
vn 0.8100 0.0059 0.5864
vn 0.9505 0.0059 0.3107
vn 1.0000 0.0059 -0.0017
vn 0.9516 0.0059 -0.3074
vn 0.8080 0.0059 -0.5892
vn 0.5892 0.0059 -0.8080
vn 0.3074 0.0059 -0.9516
vn 0.1427 -0.4093 -0.9012
vn 0.6452 -0.4093 -0.6452
vn 0.4142 -0.4093 0.8129
vn -0.1427 -0.4093 0.9012
vn -0.6452 -0.4093 0.6452
vn -0.9012 -0.4093 0.1427
vn -0.8129 -0.4093 -0.4142
vn -0.4142 -0.4093 -0.8130
vn -0.5966 -0.7970 -0.0945
vn -0.4271 -0.7970 -0.4271
vn 0.0000 -1.0000 -0.0000
vn -0.2742 -0.7970 0.5382
vn 0.0945 -0.7970 0.5966
vn 0.5382 -0.7970 -0.2742
vn 0.4271 -0.7970 0.4271
vn -0.5382 -0.7970 0.2742
vn -0.0945 -0.7970 -0.5966
vn 0.2742 -0.7970 -0.5382
vn 0.1046 -0.9431 0.3155
vn -0.0020 -0.9431 0.3324
vn 0.3168 -0.9431 -0.1008
vn 0.3324 -0.9431 -0.0020
vn -0.3155 -0.9431 -0.1046
vn -0.2701 -0.9431 -0.1938
vn -0.1008 -0.9431 0.3168
vn -0.1970 -0.9431 0.2677
vn 0.3155 -0.9431 0.1046
vn 0.2701 -0.9431 0.1938
vn 0.1008 -0.9431 -0.3168
vn -0.1938 -0.9431 -0.2701
vn -0.1046 -0.9431 -0.3155
vn -0.2677 -0.9431 0.1970
vn -0.3168 -0.9431 0.1008
vn 0.1938 -0.9431 0.2701
vn -0.3324 -0.9431 0.0020
vn 0.0020 -0.9431 -0.3324
vn 0.8079 0.0518 0.5870
vn 0.9498 0.0518 0.3086
vn 0.7756 0.5788 0.2520
vn 0.6597 0.5788 0.4793
vn -0.4793 0.5788 -0.6597
vn -0.6597 0.5788 -0.4793
vn -0.3723 0.8878 -0.2705
vn -0.2705 0.8878 -0.3723
vn -0.9498 0.0518 0.3086
vn -0.8079 0.0518 0.5870
vn -0.6597 0.5788 0.4793
vn -0.7756 0.5788 0.2520
vn 0.9987 0.0518 0.0000
vn 0.8155 0.5788 0.0000
vn -0.5870 0.0518 0.8079
vn -0.4793 0.5788 0.6597
vn 0.0000 0.0518 -0.9987
vn -0.3086 0.0518 -0.9498
vn -0.2520 0.5788 -0.7756
vn 0.0000 0.5788 -0.8155
vn 0.9498 0.0518 -0.3086
vn 0.7756 0.5788 -0.2520
vn -0.3086 0.0518 0.9498
vn -0.2520 0.5788 0.7756
vn -0.5870 0.0518 -0.8079
vn 0.8079 0.0518 -0.5870
vn 0.6597 0.5788 -0.4793
vn -0.0000 0.0518 0.9987
vn -0.0000 0.5788 0.8155
vn -0.8079 0.0518 -0.5870
vn 0.5870 0.0518 -0.8079
vn 0.4793 0.5788 -0.6597
vn 0.3086 0.0518 0.9498
vn 0.2520 0.5788 0.7756
vn -0.9498 0.0518 -0.3086
vn -0.7756 0.5788 -0.2520
vn 0.3086 0.0518 -0.9498
vn 0.2520 0.5788 -0.7756
vn 0.5870 0.0518 0.8079
vn 0.4793 0.5788 0.6597
vn -0.9987 0.0518 -0.0000
vn -0.8155 0.5788 -0.0000
vn 0.3723 0.8878 0.2705
vn 0.4377 0.8878 0.1422
vn 0.0000 1.0000 -0.0000
vn -0.0000 0.8878 0.4602
vn -0.1422 0.8878 0.4377
vn -0.1422 0.8878 -0.4377
vn -0.2705 0.8878 0.3723
vn 0.4377 0.8878 -0.1422
vn 0.4602 0.8878 -0.0000
vn 0.0000 0.8878 -0.4602
vn -0.3723 0.8878 0.2705
vn -0.4377 0.8878 0.1422
vn 0.3723 0.8878 -0.2705
vn -0.4602 0.8878 -0.0000
vn 0.2705 0.8878 -0.3723
vn 0.2705 0.8878 0.3723
vn -0.4377 0.8878 -0.1422
vn 0.1422 0.8878 -0.4377
vn 0.1422 0.8878 0.4377
usemtl Mushroom_3
s 1
f 21/1/1 2/2/2 22/3/3
f 22/3/3 2/2/2 4/4/4
f 22/3/3 4/4/4 23/5/5
f 23/5/5 4/4/4 6/6/6
f 23/5/5 6/6/6 24/7/7
f 24/7/7 6/6/6 8/8/8
f 24/9/7 8/10/8 25/11/9
f 25/11/9 8/10/8 10/12/10
f 25/11/9 10/12/10 26/13/11
f 26/13/11 10/12/10 12/14/12
f 26/13/11 12/14/12 27/15/13
f 27/15/13 12/14/12 14/16/14
f 27/15/13 14/16/14 28/17/15
f 28/17/15 14/16/14 16/18/16
f 28/17/15 16/18/16 29/19/17
f 29/19/17 16/18/16 18/20/18
f 29/21/17 18/22/18 30/23/19
f 30/23/19 18/22/18 20/24/20
f 4/25/4 78/26/21 77/27/22
f 30/23/19 20/24/20 21/1/1
f 21/1/1 20/24/20 2/2/2
f 5/28/23 7/29/24 54/30/25
f 49/31/26 21/1/1 50/32/27
f 48/33/28 30/23/19 21/1/1 49/31/26
f 47/34/29 30/23/19 48/33/28
f 46/35/30 29/21/17 30/23/19 47/34/29
f 45/36/31 29/21/17 46/35/30
f 44/37/32 28/17/15 29/19/17 45/38/31
f 43/39/33 28/17/15 44/37/32
f 42/40/34 27/15/13 28/17/15 43/39/33
f 41/41/35 27/15/13 42/40/34
f 40/42/36 26/13/11 27/15/13 41/41/35
f 39/43/37 26/13/11 40/42/36
f 38/44/38 25/11/9 26/13/11 39/43/37
f 37/45/39 25/11/9 38/44/38
f 36/46/40 24/9/7 25/11/9 37/45/39
f 35/47/41 24/9/7 36/46/40
f 34/48/42 23/5/5 24/7/7 35/49/41
f 33/50/43 23/5/5 34/48/42
f 32/51/44 22/3/3 23/5/5 33/50/43
f 31/52/45 22/3/3 32/51/44
f 50/32/27 21/1/1 22/3/3 31/52/45
f 1/53/46 50/32/27 31/52/45
f 1/53/46 31/52/45 32/51/44 3/54/47
f 3/54/47 32/51/44 33/50/43
f 3/54/47 33/50/43 34/48/42 5/55/23
f 5/55/23 34/48/42 35/49/41
f 5/56/23 35/47/41 36/46/40 7/57/24
f 7/57/24 36/46/40 37/45/39
f 7/57/24 37/45/39 38/44/38 9/58/48
f 9/58/48 38/44/38 39/43/37
f 9/58/48 39/43/37 40/42/36 11/59/49
f 11/59/49 40/42/36 41/41/35
f 11/59/49 41/41/35 42/40/34 13/60/50
f 13/60/50 42/40/34 43/39/33
f 13/60/50 43/39/33 44/37/32 15/61/51
f 15/61/51 44/37/32 45/38/31
f 15/62/51 45/36/31 46/35/30 17/63/52
f 17/63/52 46/35/30 47/34/29
f 17/63/52 47/34/29 48/33/28 19/64/53
f 19/64/53 48/33/28 49/31/26
f 19/64/53 49/31/26 50/32/27 1/53/46
f 59/65/54 60/66/55 61/67/56
f 11/68/49 57/69/57 56/70/58
f 15/71/51 17/72/52 59/65/54
f 3/73/47 5/28/23 53/74/59
f 9/75/48 56/70/58 55/76/60
f 13/77/50 15/71/51 58/78/61
f 19/79/53 51/80/62 60/66/55
f 1/81/46 3/73/47 52/82/63
f 7/29/24 55/76/60 54/30/25
f 11/68/49 13/77/50 57/69/57
f 17/72/52 60/66/55 59/65/54
f 5/28/23 54/30/25 53/74/59
f 9/75/48 11/68/49 56/70/58
f 15/71/51 59/65/54 58/78/61
f 19/79/53 1/81/46 51/80/62
f 3/73/47 53/74/59 52/82/63
f 7/29/24 9/75/48 55/76/60
f 1/81/46 52/82/63 51/80/62
f 13/77/50 58/78/61 57/69/57
f 17/72/52 19/79/53 60/66/55
f 12/83/12 10/84/10 71/85/64 70/86/65
f 52/82/63 53/74/59 61/67/56
f 56/70/58 57/69/57 61/67/56
f 60/66/55 51/80/62 61/67/56
f 53/74/59 54/30/25 61/67/56
f 57/69/57 58/78/61 61/67/56
f 54/30/25 55/76/60 61/67/56
f 58/78/61 59/65/54 61/67/56
f 51/80/62 52/82/63 61/67/56
f 55/76/60 56/70/58 61/67/56
f 6/87/6 76/88/66 75/89/67
f 18/90/18 64/91/68 63/92/69
f 14/93/14 12/83/12 69/94/70 68/95/71
f 8/96/8 74/97/72 73/98/73
f 4/25/4 2/99/2 79/100/74 78/26/21
f 20/101/20 62/102/75 81/103/76
f 16/104/16 14/93/14 67/105/77 66/106/78
f 10/84/10 72/107/79 71/85/64
f 6/87/6 4/25/4 77/27/22 76/88/66
f 18/90/18 16/104/16 65/108/80 64/91/68
f 12/83/12 70/86/65 69/94/70
f 8/96/8 6/87/6 75/89/67 74/97/72
f 20/101/20 18/90/18 63/92/69 62/102/75
f 14/93/14 68/95/71 67/105/77
f 2/99/2 80/109/81 79/100/74
f 10/84/10 8/96/8 73/98/73 72/107/79
f 140/110/82 141/111/83 94/112/84 93/113/85
f 16/104/16 66/106/78 65/108/80
f 2/99/2 20/101/20 81/103/76 80/109/81
f 82/114/86 83/115/87 103/116/88 102/117/89
f 138/118/90 139/119/91 87/120/92 86/121/93
f 141/111/83 137/122/94 95/123/95 94/112/84
f 139/124/91 136/125/96 88/126/97 87/127/92
f 134/128/98 135/129/99 101/130/100 100/131/101
f 137/122/94 133/132/102 96/133/103 95/123/95
f 136/125/96 132/134/104 89/135/105 88/126/97
f 135/129/99 131/136/106 82/114/86 101/130/100
f 133/132/102 130/137/107 97/138/108 96/133/103
f 132/134/104 129/139/109 90/140/110 89/135/105
f 131/136/106 128/141/111 83/115/87 82/114/86
f 130/142/107 127/143/112 98/144/113 97/145/108
f 129/139/109 126/146/114 91/147/115 90/140/110
f 128/141/111 125/148/116 84/149/117 83/115/87
f 127/143/112 124/150/118 99/151/119 98/144/113
f 126/146/114 123/152/120 92/153/121 91/147/115
f 125/148/116 142/154/122 85/155/123 84/149/117
f 124/150/118 134/128/98 100/131/101 99/151/119
f 123/152/120 140/110/82 93/113/85 92/153/121
f 142/154/122 138/118/90 86/121/93 85/155/123
f 113/156/124 114/157/125 122/158/126
f 89/135/105 90/140/110 110/159/127 109/160/128
f 101/130/100 82/114/86 102/117/89 121/161/129
f 88/126/97 89/135/105 109/160/128 108/162/130
f 95/123/95 96/133/103 116/163/131 115/164/132
f 100/131/101 101/130/100 121/161/129 120/165/133
f 87/127/92 88/126/97 108/162/130 107/166/134
f 94/112/84 95/123/95 115/164/132 114/157/125
f 86/121/93 87/120/92 107/167/134 106/168/135
f 96/133/103 97/138/108 117/169/136 116/163/131
f 93/113/85 94/112/84 114/157/125 113/156/124
f 85/155/123 86/121/93 106/168/135 105/170/137
f 97/145/108 98/144/113 118/171/138 117/172/136
f 92/153/121 93/113/85 113/156/124 112/173/139
f 84/149/117 85/155/123 105/170/137 104/174/140
f 98/144/113 99/151/119 119/175/141 118/171/138
f 91/147/115 92/153/121 112/173/139 111/176/142
f 83/115/87 84/149/117 104/174/140 103/116/88
f 99/151/119 100/131/101 120/165/133 119/175/141
f 90/140/110 91/147/115 111/176/142 110/159/127
f 74/177/72 75/178/67 137/122/94 141/111/83
f 117/172/136 118/171/138 122/179/126
f 105/170/137 106/168/135 122/179/126
f 112/173/139 113/156/124 122/158/126
f 118/171/138 119/175/141 122/179/126
f 104/174/140 105/170/137 122/179/126
f 111/176/142 112/173/139 122/158/126
f 119/175/141 120/165/133 122/179/126
f 103/116/88 104/174/140 122/179/126
f 110/159/127 111/176/142 122/158/126
f 102/117/89 103/116/88 122/179/126
f 109/160/128 110/159/127 122/158/126
f 121/161/129 102/117/89 122/179/126
f 108/162/130 109/160/128 122/158/126
f 115/164/132 116/163/131 122/158/126
f 120/165/133 121/161/129 122/179/126
f 107/166/134 108/162/130 122/158/126
f 114/157/125 115/164/132 122/158/126
f 116/163/131 117/169/136 122/158/126
f 106/168/135 107/167/134 122/179/126
f 67/180/77 68/181/71 136/125/96 139/124/91
f 80/182/81 81/183/76 135/129/99 134/128/98
f 75/178/67 76/184/66 133/132/102 137/122/94
f 68/181/71 69/185/70 132/134/104 136/125/96
f 81/183/76 62/186/75 131/136/106 135/129/99
f 76/184/66 77/187/22 130/137/107 133/132/102
f 69/185/70 70/188/65 129/139/109 132/134/104
f 62/186/75 63/189/69 128/141/111 131/136/106
f 77/190/22 78/191/21 127/143/112 130/142/107
f 70/188/65 71/192/64 126/146/114 129/139/109
f 63/189/69 64/193/68 125/148/116 128/141/111
f 78/191/21 79/194/74 124/150/118 127/143/112
f 71/192/64 72/195/79 123/152/120 126/146/114
f 64/193/68 65/196/80 142/154/122 125/148/116
f 79/194/74 80/182/81 134/128/98 124/150/118
f 72/195/79 73/197/73 140/110/82 123/152/120
f 65/196/80 66/198/78 138/118/90 142/154/122
f 66/198/78 67/199/77 139/119/91 138/118/90
f 73/197/73 74/177/72 141/111/83 140/110/82
