{
  "accessors": [
    {
      "bufferView": 2,
      "componentType": 5126,
      "count": 3719,
      "max": [
        1.007720708847046,
        1.347756266593933,
        1.1835607290267944
      ],
      "min": [
        -1.0945466756820679,
        0.32928919792175293,
        -1.0657685995101929
      ],
      "type": "VEC3"
    },
    {
      "bufferView": 2,
      "byteOffset": 44628,
      "componentType": 5126,
      "count": 3719,
      "max": [
        0.9999881982803345,
        0.9998272657394409,
        0.9963183999061584
      ],
      "min": [
        -0.999709963798523,
        -0.9996134042739868,
        -0.9986538887023926
      ],
      "type": "VEC3"
    },
    {
      "bufferView": 3,
      "componentType": 5126,
      "count": 3719,
      "max": [
        0.9967585802078247,
        0.9990247488021851,
        0.9923271536827087,
        1.0
      ],
      "min": [
        -0.99428790807724,
        -0.9998301267623901,
        -0.9975147843360901,
        1.0
      ],
      "type": "VEC4"
    },
    {
      "bufferView": 1,
      "componentType": 5126,
      "count": 3719,
      "max": [
        1.0,
        0.8672831058502197
      ],
      "min": [
        0.0,
        0.0
      ],
      "type": "VEC2"
    },
    {
      "bufferView": 0,
      "componentType": 5125,
      "count": 15585,
      "type": "SCALAR"
    },
    {
      "bufferView": 2,
      "byteOffset": 89256,
      "componentType": 5126,
      "count": 4206,
      "max": [
        0.9479683637619019,
        1.2469595670700073,
        1.1586130857467651
      ],
      "min": [
        -1.0067263841629028,
        -0.0025750016793608665,
        -1.0320125818252563
      ],
      "type": "VEC3"
    },
    {
      "bufferView": 2,
      "byteOffset": 139728,
      "componentType": 5126,
      "count": 4206,
      "max": [
        0.9984813332557678,
        0.9423661231994629,
        0.9955716133117676
      ],
      "min": [
        -0.9997514486312866,
        -0.9997760057449341,
        -0.9999399185180664
      ],
      "type": "VEC3"
    },
    {
      "bufferView": 3,
      "byteOffset": 59504,
      "componentType": 5126,
      "count": 4206,
      "max": [
        0.999991774559021,
        0.9996736645698547,
        0.9980804324150085,
        1.0
      ],
      "min": [
        -0.9924106001853943,
        -0.9990478754043579,
        -0.9998266100883484,
        -1.0
      ],
      "type": "VEC4"
    },
    {
      "bufferView": 1,
      "byteOffset": 29752,
      "componentType": 5126,
      "count": 4206,
      "max": [
        0.9965574145317078,
        0.8180049657821655
      ],
      "min": [
        0.0,
        0.011345863342285156
      ],
      "type": "VEC2"
    },
    {
      "bufferView": 0,
      "byteOffset": 62340,
      "componentType": 5125,
      "count": 17631,
      "type": "SCALAR"
    }
  ],
  "asset": {
    "extras": {
      "author": "MushyDay (https://sketchfab.com/MushyDay)",
      "license": "CC-BY-4.0 (http://creativecommons.org/licenses/by/4.0/)",
      "source": "https://sketchfab.com/3d-models/mushroom-boletus-kind-midpoly-7902290b37244ea7acbbc00f0dddbc0b",
      "title": "Mushroom - Boletus kind - MidPoly"
    },
    "generator": "Sketchfab-12.67.0",
    "version": "2.0"
  },
  "bufferViews": [
    {
      "buffer": 0,
      "byteLength": 132864,
      "name": "floatBufferViews",
      "target": 34963
    },
    {
      "buffer": 0,
      "byteLength": 63400,
      "byteOffset": 132864,
      "byteStride": 8,
      "name": "floatBufferViews",
      "target": 34962
    },
    {
      "buffer": 0,
      "byteLength": 190200,
      "byteOffset": 196264,
      "byteStride": 12,
      "name": "floatBufferViews",
      "target": 34962
    },
    {
      "buffer": 0,
      "byteLength": 126800,
      "byteOffset": 386464,
      "byteStride": 16,
      "name": "floatBufferViews",
      "target": 34962
    }
  ],
  "buffers": [
    {
      "byteLength": 513264,
      "uri": "scene.bin"
    }
  ],
  "images": [
    {
      "uri": "textures/MushroomsTop_baseColor.jpeg"
    },
    {
      "uri": "textures/MushroomsTop_metallicRoughness.png"
    },
    {
      "uri": "textures/MushroomsTop_normal.jpeg"
    },
    {
      "uri": "textures/MushroomsBody_emissive.jpeg"
    }
  ],
  "materials": [
    {
      "doubleSided": true,
      "name": "MushroomsTop",
      "normalTexture": {
        "index": 2
      },
      "pbrMetallicRoughness": {
        "baseColorTexture": {
          "index": 0
        },
        "metallicFactor": 0.0,
        "metallicRoughnessTexture": {
          "index": 1
        }
      }
    },
    {
      "doubleSided": true,
      "emissiveFactor": [
        1.0,
        1.0,
        1.0
      ],
      "emissiveTexture": {
        "index": 3
      },
      "name": "MushroomsBody",
      "normalTexture": {
        "index": 2
      },
      "pbrMetallicRoughness": {
        "baseColorTexture": {
          "index": 0
        },
        "metallicFactor": 0.0,
        "metallicRoughnessTexture": {
          "index": 1
        }
      }
    }
  ],
  "meshes": [
    {
      "name": "Object_0",
      "primitives": [
        {
          "attributes": {
            "NORMAL": 1,
            "POSITION": 0,
            "TANGENT": 2,
            "TEXCOORD_0": 3
          },
          "indices": 4,
          "material": 0,
          "mode": 4
        }
      ]
    },
    {
      "name": "Object_1",
      "primitives": [
        {
          "attributes": {
            "NORMAL": 6,
            "POSITION": 5,
            "TANGENT": 7,
            "TEXCOORD_0": 8
          },
          "indices": 9,
          "material": 1,
          "mode": 4
        }
      ]
    }
  ],
  "nodes": [
    {
      "children": [
        1
      ],
      "matrix": [
        1.0,
        0.0,
        0.0,
        0.0,
        0.0,
        2.220446049250313e-16,
        -1.0,
        0.0,
        0.0,
        1.0,
        2.220446049250313e-16,
        0.0,
        0.0,
        0.0,
        0.0,
        1.0
      ],
      "name": "Sketchfab_model"
    },
    {
      "children": [
        2
      ],
      "name": "root"
    },
    {
      "children": [
        3,
        5
      ],
      "matrix": [
        1.0,
        0.0,
        0.0,
        0.0,
        0.0,
        2.220446049250313e-16,
        1.0,
        0.0,
        0.0,
        -1.0,
        2.220446049250313e-16,
        0.0,
        0.0,
        0.0,
        0.0,
        1.0
      ],
      "name": "GLTF_SceneRootNode"
    },
    {
      "children": [
        4
      ],
      "name": "Mushroom.top_0"
    },
    {
      "mesh": 0,
      "name": "Object_4"
    },
    {
      "children": [
        6
      ],
      "name": "Mushroom.body_1"
    },
    {
      "mesh": 1,
      "name": "Object_6"
    }
  ],
  "samplers": [
    {
      "magFilter": 9729,
      "minFilter": 9987,
      "wrapS": 10497,
      "wrapT": 10497
    }
  ],
  "scene": 0,
  "scenes": [
    {
      "name": "Sketchfab_Scene",
      "nodes": [
        0
      ]
    }
  ],
  "textures": [
    {
      "sampler": 0,
      "source": 0
    },
    {
      "sampler": 0,
      "source": 1
    },
    {
      "sampler": 0,
      "source": 2
    },
    {
      "sampler": 0,
      "source": 3
    }
  ]
}
