{
  "accessors": [
    {
      "bufferView": 2,
      "componentType": 5126,
      "count": 2288,
      "max": [
        0.026184266433119774,
        0.02026982605457306,
        0.05303139239549637
      ],
      "min": [
        -0.013018225319683552,
        -0.012474569492042065,
        -0.004016153980046511
      ],
      "type": "VEC3"
    },
    {
      "bufferView": 2,
      "byteOffset": 27456,
      "componentType": 5126,
      "count": 2288,
      "max": [
        0.9995459318161011,
        0.9999665021896362,
        0.999231219291687
      ],
      "min": [
        -0.9991602897644043,
        -0.9998468160629272,
        -0.9999816417694092
      ],
      "type": "VEC3"
    },
    {
      "bufferView": 3,
      "componentType": 5126,
      "count": 2288,
      "max": [
        0.9999998211860657,
        0.9999959468841553,
        0.9992029070854187,
        1.0
      ],
      "min": [
        -0.9999921917915344,
        -0.9999992251396179,
        -0.9995154738426208,
        1.0
      ],
      "type": "VEC4"
    },
    {
      "bufferView": 1,
      "componentType": 5126,
      "count": 2288,
      "max": [
        0.9870032072067261,
        0.9767316579818726
      ],
      "min": [
        0.020226692780852318,
        0.0021388083696365356
      ],
      "type": "VEC2"
    },
    {
      "bufferView": 1,
      "byteOffset": 18304,
      "componentType": 5126,
      "count": 2288,
      "max": [
        0.9870032072067261,
        0.9767316579818726
      ],
      "min": [
        0.020226692780852318,
        0.0021388083696365356
      ],
      "type": "VEC2"
    },
    {
      "bufferView": 1,
      "byteOffset": 36608,
      "componentType": 5126,
      "count": 2288,
      "max": [
        0.9870032072067261,
        0.9767316579818726
      ],
      "min": [
        0.020226692780852318,
        0.0021388083696365356
      ],
      "type": "VEC2"
    },
    {
      "bufferView": 0,
      "componentType": 5125,
      "count": 12456,
      "type": "SCALAR"
    }
  ],
  "asset": {
    "extras": {
      "author": "SanForge Studio (https://sketchfab.com/SanForge)",
      "license": "CC-BY-4.0 (http://creativecommons.org/licenses/by/4.0/)",
      "source": "https://sketchfab.com/3d-models/realistic-mushroom-01-aededce1ec0f48f8b0f50cc1762a3f86",
      "title": "Realistic Mushroom - 01"
    },
    "generator": "Sketchfab-15.37.0",
    "version": "2.0"
  },
  "bufferViews": [
    {
      "buffer": 0,
      "byteLength": 49824,
      "name": "floatBufferViews",
      "target": 34963
    },
    {
      "buffer": 0,
      "byteLength": 54912,
      "byteOffset": 49824,
      "byteStride": 8,
      "name": "floatBufferViews",
      "target": 34962
    },
    {
      "buffer": 0,
      "byteLength": 54912,
      "byteOffset": 104736,
      "byteStride": 12,
      "name": "floatBufferViews",
      "target": 34962
    },
    {
      "buffer": 0,
      "byteLength": 36608,
      "byteOffset": 159648,
      "byteStride": 16,
      "name": "floatBufferViews",
      "target": 34962
    }
  ],
  "buffers": [
    {
      "byteLength": 196256,
      "uri": "scene.bin"
    }
  ],
  "extensionsUsed": [
    "KHR_materials_specular"
  ],
  "images": [
    {
      "uri": "textures/mushroom_baseColor.jpeg"
    },
    {
      "uri": "textures/mushroom_metallicRoughness.png"
    },
    {
      "uri": "textures/mushroom_normal.png"
    }
  ],
  "materials": [
    {
      "doubleSided": true,
      "extensions": {
        "KHR_materials_specular": {
          "specularColorFactor": [
            1.0,
            1.0,
            1.0
          ],
          "specularFactor": 0.11091757520471289
        }
      },
      "name": "mushroom",
      "normalTexture": {
        "index": 2
      },
      "pbrMetallicRoughness": {
        "baseColorTexture": {
          "index": 0
        },
        "metallicFactor": 0.0,
        "metallicRoughnessTexture": {
          "index": 1
        }
      }
    }
  ],
  "meshes": [
    {
      "name": "mushroom_mushroom_0",
      "primitives": [
        {
          "attributes": {
            "NORMAL": 1,
            "POSITION": 0,
            "TANGENT": 2,
            "TEXCOORD_0": 3,
            "TEXCOORD_1": 4,
            "TEXCOORD_2": 5
          },
          "indices": 6,
          "material": 0,
          "mode": 4
        }
      ]
    }
  ],
  "nodes": [
    {
      "children": [
        1
      ],
      "matrix": [
        1.0,
        0.0,
        0.0,
        0.0,
        0.0,
        2.220446049250313e-16,
        -1.0,
        0.0,
        0.0,
        1.0,
        2.220446049250313e-16,
        0.0,
        0.0,
        0.0,
        0.0,
        1.0
      ],
      "name": "Sketchfab_model"
    },
    {
      "children": [
        2
      ],
      "matrix": [
        0.009999999776482582,
        0.0,
        0.0,
        0.0,
        0.0,
        0.0,
        0.009999999776482582,
        0.0,
        0.0,
        -0.009999999776482582,
        0.0,
        0.0,
        0.0,
        0.0,
        0.0,
        1.0
      ],
      "name": "9b25ea2fbf8149bba7ed5281927df3bb.fbx"
    },
    {
      "children": [
        3
      ],
      "name": "RootNode"
    },
    {
      "children": [
        4
      ],
      "matrix": [
        100.0,
        0.0,
        0.0,
        0.0,
        -0.0,
        -1.629206793918314e-05,
        -99.99999999999868,
        0.0,
        0.0,
        99.99999999999868,
        -1.629206793918314e-05,
        0.0,
        -6.89167594909668,
        0.0,
        -1.5968985557556152,
        1.0
      ],
      "name": "mushroom"
    },
    {
      "mesh": 0,
      "name": "mushroom_mushroom_0"
    }
  ],
  "samplers": [
    {
      "magFilter": 9729,
      "minFilter": 9987,
      "wrapS": 10497,
      "wrapT": 10497
    }
  ],
  "scene": 0,
  "scenes": [
    {
      "name": "Sketchfab_Scene",
      "nodes": [
        0
      ]
    }
  ],
  "textures": [
    {
      "sampler": 0,
      "source": 0
    },
    {
      "sampler": 0,
      "source": 1
    },
    {
      "sampler": 0,
      "source": 2
    }
  ]
}
