{
  "accessors": [
    {
      "bufferView": 2,
      "componentType": 5126,
      "count": 65532,
      "max": [
        247.674072265625,
        383.0122375488281,
        226.49986267089844
      ],
      "min": [
        -271.1097106933594,
        -614.2544555664063,
        -274.517333984375
      ],
      "type": "VEC3"
    },
    {
      "bufferView": 2,
      "byteOffset": 786384,
      "componentType": 5126,
      "count": 65532,
      "max": [
        0.9999804496765137,
        0.9998888373374939,
        0.9999986290931702
      ],
      "min": [
        -0.9999938607215881,
        -0.9999687075614929,
        -0.9998953342437744
      ],
      "type": "VEC3"
    },
    {
      "bufferView": 1,
      "componentType": 5126,
      "count": 65532,
      "max": [
        0.9833151698112488,
        0.9977087378501892
      ],
      "min": [
        0.0003377864195499569,
        0.0010984539985656738
      ],
      "type": "VEC2"
    },
    {
      "bufferView": 0,
      "componentType": 5125,
      "count": 286098,
      "type": "SCALAR"
    },
    {
      "bufferView": 2,
      "byteOffset": 1572768,
      "componentType": 5126,
      "count": 65532,
      "max": [
        247.674072265625,
        380.2118835449219,
        224.583740234375
      ],
      "min": [
        -270.2850036621094,
        -616.677734375,
        -271.2728271484375
      ],
      "type": "VEC3"
    },
    {
      "bufferView": 2,
      "byteOffset": 2359152,
      "componentType": 5126,
      "count": 65532,
      "max": [
        0.9999943375587463,
        0.9996070265769958,
        0.9999629855155945
      ],
      "min": [
        -0.9999979138374329,
        -0.9999932646751404,
        -0.9999741911888123
      ],
      "type": "VEC3"
    },
    {
      "bufferView": 1,
      "byteOffset": 524256,
      "componentType": 5126,
      "count": 65532,
      "max": [
        0.992250919342041,
        0.99972003698349
      ],
      "min": [
        0.0007200493710115552,
        0.0007269978523254395
      ],
      "type": "VEC2"
    },
    {
      "bufferView": 0,
      "byteOffset": 1144392,
      "componentType": 5125,
      "count": 291336,
      "type": "SCALAR"
    },
    {
      "bufferView": 2,
      "byteOffset": 3145536,
      "componentType": 5126,
      "count": 65532,
      "max": [
        246.16015625,
        381.7273864746094,
        224.8275909423828
      ],
      "min": [
        -272.2038269042969,
        -614.1883544921875,
        -274.517333984375
      ],
      "type": "VEC3"
    },
    {
      "bufferView": 2,
      "byteOffset": 3931920,
      "componentType": 5126,
      "count": 65532,
      "max": [
        0.999992311000824,
        0.9989223480224609,
        0.9999789595603943
      ],
      "min": [
        -0.9999687671661377,
        -0.9999582171440125,
        -0.9999908208847046
      ],
      "type": "VEC3"
    },
    {
      "bufferView": 1,
      "byteOffset": 1048512,
      "componentType": 5126,
      "count": 65532,
      "max": [
        0.9938862323760986,
        0.9996808171272278
      ],
      "min": [
        0.00031966305687092245,
        0.0039473772048950195
      ],
      "type": "VEC2"
    },
    {
      "bufferView": 0,
      "byteOffset": 2309736,
      "componentType": 5125,
      "count": 281136,
      "type": "SCALAR"
    },
    {
      "bufferView": 2,
      "byteOffset": 4718304,
      "componentType": 5126,
      "count": 65532,
      "max": [
        247.3394012451172,
        382.94488525390625,
        226.62945556640625
      ],
      "min": [
        -273.0346374511719,
        -616.6151733398438,
        -270.3536376953125
      ],
      "type": "VEC3"
    },
    {
      "bufferView": 2,
      "byteOffset": 5504688,
      "componentType": 5126,
      "count": 65532,
      "max": [
        0.9999828934669495,
        0.9999942779541016,
        0.9999914765357971
      ],
      "min": [
        -0.999984085559845,
        -0.9999905228614807,
        -0.9999908208847046
      ],
      "type": "VEC3"
    },
    {
      "bufferView": 1,
      "byteOffset": 1572768,
      "componentType": 5126,
      "count": 65532,
      "max": [
        0.9956222176551819,
        0.9997127652168274
      ],
      "min": [
        0.000279532017884776,
        0.0009586811065673828
      ],
      "type": "VEC2"
    },
    {
      "bufferView": 0,
      "byteOffset": 3434280,
      "componentType": 5125,
      "count": 257385,
      "type": "SCALAR"
    },
    {
      "bufferView": 2,
      "byteOffset": 6291072,
      "componentType": 5126,
      "count": 65533,
      "max": [
        247.3394012451172,
        382.67138671875,
        226.64337158203125
      ],
      "min": [
        -273.0346374511719,
        -616.98779296875,
        -274.16766357421875
      ],
      "type": "VEC3"
    },
    {
      "bufferView": 2,
      "byteOffset": 7077468,
      "componentType": 5126,
      "count": 65533,
      "max": [
        0.9999681711196899,
        0.9998834729194641,
        0.9999408721923828
      ],
      "min": [
        -0.9999096989631653,
        -0.999998152256012,
        -0.9999908804893494
      ],
      "type": "VEC3"
    },
    {
      "bufferView": 1,
      "byteOffset": 2097024,
      "componentType": 5126,
      "count": 65533,
      "max": [
        0.9984409213066101,
        0.9997068047523499
      ],
      "min": [
        0.00031087928800843656,
        0.0008521676063537598
      ],
      "type": "VEC2"
    },
    {
      "bufferView": 0,
      "byteOffset": 4463820,
      "componentType": 5125,
      "count": 222135,
      "type": "SCALAR"
    },
    {
      "bufferView": 2,
      "byteOffset": 7863864,
      "componentType": 5126,
      "count": 65532,
      "max": [
        247.3394012451172,
        383.0122375488281,
        226.62945556640625
      ],
      "min": [
        -273.0346374511719,
        -616.677734375,
        -274.1832580566406
      ],
      "type": "VEC3"
    },
    {
      "bufferView": 2,
      "byteOffset": 8650248,
      "componentType": 5126,
      "count": 65532,
      "max": [
        0.9999943375587463,
        0.999599814414978,
        0.9999517798423767
      ],
      "min": [
        -0.9999938607215881,
        -0.999997079372406,
        -0.9999908804893494
      ],
      "type": "VEC3"
    },
    {
      "bufferView": 1,
      "byteOffset": 2621288,
      "componentType": 5126,
      "count": 65532,
      "max": [
        0.9984351396560669,
        0.9997192621231079
      ],
      "min": [
        0.00028957685572095215,
        0.0008514523506164551
      ],
      "type": "VEC2"
    },
    {
      "bufferView": 0,
      "byteOffset": 5352360,
      "componentType": 5125,
      "count": 136137,
      "type": "SCALAR"
    },
    {
      "bufferView": 2,
      "byteOffset": 9436632,
      "componentType": 5126,
      "count": 20352,
      "max": [
        246.27560424804688,
        382.8141174316406,
        226.15536499023438
      ],
      "min": [
        -270.4365234375,
        -616.98779296875,
        -270.4425354003906
      ],
      "type": "VEC3"
    },
    {
      "bufferView": 2,
      "byteOffset": 9680856,
      "componentType": 5126,
      "count": 20352,
      "max": [
        0.9999538660049438,
        0.9998834729194641,
        0.999944806098938
      ],
      "min": [
        -0.9999800324440002,
        -0.9999675154685974,
        -0.99957275390625
      ],
      "type": "VEC3"
    },
    {
      "bufferView": 1,
      "byteOffset": 3145544,
      "componentType": 5126,
      "count": 20352,
      "max": [
        0.9984176754951477,
        0.9997199177742004
      ],
      "min": [
        0.0002792652521748096,
        0.0014445781707763672
      ],
      "type": "VEC2"
    },
    {
      "bufferView": 0,
      "byteOffset": 5896908,
      "componentType": 5125,
      "count": 25836,
      "type": "SCALAR"
    }
  ],
  "asset": {
    "extras": {
      "author": "samuelnorth (https://sketchfab.com/samnorth)",
      "license": "CC-BY-4.0 (http://creativecommons.org/licenses/by/4.0/)",
      "source": "https://sketchfab.com/3d-models/shaggy-parasol-mushroom-chlorophyllum-rhacodes-251e85668daf45ccb6f14d51c584920b",
      "title": "Shaggy Parasol Mushroom (Chlorophyllum rhacodes)"
    },
    "generator": "Sketchfab-12.66.0",
    "version": "2.0"
  },
  "bufferViews": [
    {
      "buffer": 0,
      "byteLength": 6000252,
      "name": "floatBufferViews",
      "target": 34963
    },
    {
      "buffer": 0,
      "byteLength": 3308360,
      "byteOffset": 6000252,
      "byteStride": 8,
      "name": "floatBufferViews",
      "target": 34962
    },
    {
      "buffer": 0,
      "byteLength": 9925080,
      "byteOffset": 9308612,
      "byteStride": 12,
      "name": "floatBufferViews",
      "target": 34962
    }
  ],
  "buffers": [
    {
      "byteLength": 19233692,
      "uri": "scene.bin"
    }
  ],
  "extensionsUsed": [
    "KHR_materials_unlit"
  ],
  "images": [
    {
      "uri": "textures/Material0_baseColor.jpeg"
    }
  ],
  "materials": [
    {
      "doubleSided": true,
      "extensions": {
        "KHR_materials_unlit": {}
      },
      "name": "Material0",
      "pbrMetallicRoughness": {
        "baseColorTexture": {
          "index": 0
        },
        "metallicFactor": 0.0
      }
    }
  ],
  "meshes": [
    {
      "name": "Stereo textured mesh_Material0_0",
      "primitives": [
        {
          "attributes": {
            "NORMAL": 1,
            "POSITION": 0,
            "TEXCOORD_0": 2
          },
          "indices": 3,
          "material": 0,
          "mode": 4
        }
      ]
    },
    {
      "name": "Stereo textured mesh_Material0_0",
      "primitives": [
        {
          "attributes": {
            "NORMAL": 5,
            "POSITION": 4,
            "TEXCOORD_0": 6
          },
          "indices": 7,
          "material": 0,
          "mode": 4
        }
      ]
    },
    {
      "name": "Stereo textured mesh_Material0_0",
      "primitives": [
        {
          "attributes": {
            "NORMAL": 9,
            "POSITION": 8,
            "TEXCOORD_0": 10
          },
          "indices": 11,
          "material": 0,
          "mode": 4
        }
      ]
    },
    {
      "name": "Stereo textured mesh_Material0_0",
      "primitives": [
        {
          "attributes": {
            "NORMAL": 13,
            "POSITION": 12,
            "TEXCOORD_0": 14
          },
          "indices": 15,
          "material": 0,
          "mode": 4
        }
      ]
    },
    {
      "name": "Stereo textured mesh_Material0_0",
      "primitives": [
        {
          "attributes": {
            "NORMAL": 17,
            "POSITION": 16,
            "TEXCOORD_0": 18
          },
          "indices": 19,
          "material": 0,
          "mode": 4
        }
      ]
    },
    {
      "name": "Stereo textured mesh_Material0_0",
      "primitives": [
        {
          "attributes": {
            "NORMAL": 21,
            "POSITION": 20,
            "TEXCOORD_0": 22
          },
          "indices": 23,
          "material": 0,
          "mode": 4
        }
      ]
    },
    {
      "name": "Stereo textured mesh_Material0_0",
      "primitives": [
        {
          "attributes": {
            "NORMAL": 25,
            "POSITION": 24,
            "TEXCOORD_0": 26
          },
          "indices": 27,
          "material": 0,
          "mode": 4
        }
      ]
    }
  ],
  "nodes": [
    {
      "children": [
        1
      ],
      "matrix": [
        1.0,
        0.0,
        0.0,
        0.0,
        0.0,
        2.220446049250313e-16,
        -1.0,
        0.0,
        0.0,
        1.0,
        2.220446049250313e-16,
        0.0,
        0.0,
        0.0,
        0.0,
        1.0
      ],
      "name": "Sketchfab_model"
    },
    {
      "children": [
        2
      ],
      "matrix": [
        1.0,
        0.0,
        0.0,
        0.0,
        0.0,
        0.0,
        1.0,
        0.0,
        0.0,
        -1.0,
        0.0,
        0.0,
        0.0,
        0.0,
        0.0,
        1.0
      ],
      "name": "sketchfabTemp.obj.fbx"
    },
    {
      "children": [
        3
      ],
      "name": "RootNode"
    },
    {
      "children": [
        4,
        5,
        6,
        7,
        8,
        9,
        10
      ],
      "name": "Stereo textured mesh"
    },
    {
      "mesh": 0,
      "name": "Stereo textured mesh_Material0_0"
    },
    {
      "mesh": 1,
      "name": "Stereo textured mesh_Material0_0"
    },
    {
      "mesh": 2,
      "name": "Stereo textured mesh_Material0_0"
    },
    {
      "mesh": 3,
      "name": "Stereo textured mesh_Material0_0"
    },
    {
      "mesh": 4,
      "name": "Stereo textured mesh_Material0_0"
    },
    {
      "mesh": 5,
      "name": "Stereo textured mesh_Material0_0"
    },
    {
      "mesh": 6,
      "name": "Stereo textured mesh_Material0_0"
    }
  ],
  "samplers": [
    {
      "magFilter": 9729,
      "minFilter": 9987,
      "wrapS": 10497,
      "wrapT": 10497
    }
  ],
  "scene": 0,
  "scenes": [
    {
      "name": "Sketchfab_Scene",
      "nodes": [
        0
      ]
    }
  ],
  "textures": [
    {
      "sampler": 0,
      "source": 0
    }
  ]
}
