{
  "accessors": [
    {
      "bufferView": 2,
      "componentType": 5126,
      "count": 58151,
      "max": [
        0.04812811687588692,
        0.022933397442102432,
        0.062305252999067307
      ],
      "min": [
        -0.04747050628066063,
        -0.0569024384021759,
        -0.05601545050740242
      ],
      "type": "VEC3"
    },
    {
      "bufferView": 2,
      "byteOffset": 697812,
      "componentType": 5126,
      "count": 58151,
      "max": [
        0.9999987483024597,
        0.9999802708625793,
        0.999865710735321
      ],
      "min": [
        -0.9999569654464722,
        -0.9999676942825317,
        -0.9995400905609131
      ],
      "type": "VEC3"
    },
    {
      "bufferView": 1,
      "componentType": 5126,
      "count": 58151,
      "max": [
        0.9993879795074463,
        0.9993889927864075
      ],
      "min": [
        0.0006350000039674342,
        0.0006939999875612557
      ],
      "type": "VEC2"
    },
    {
      "bufferView": 0,
      "componentType": 5125,
      "count": 255924,
      "type": "SCALAR"
    },
    {
      "bufferView": 3,
      "componentType": 5126,
      "count": 1,
      "max": [
        0.03333333507180214
      ],
      "min": [
        0.03333333507180214
      ],
      "type": "SCALAR"
    },
    {
      "bufferView": 4,
      "componentType": 5126,
      "count": 1,
      "max": [
        6.550480365753174,
        6.550480365753174,
        6.550480365753174
      ],
      "min": [
        6.550480365753174,
        6.550480365753174,
        6.550480365753174
      ],
      "type": "VEC3"
    },
    {
      "bufferView": 3,
      "byteOffset": 4,
      "componentType": 5126,
      "count": 1,
      "max": [
        0.03333333507180214
      ],
      "min": [
        0.03333333507180214
      ],
      "type": "SCALAR"
    },
    {
      "bufferView": 5,
      "componentType": 5126,
      "count": 1,
      "max": [
        -0.7071067690849304,
        -0.0,
        0.0,
        0.7071067690849304
      ],
      "min": [
        -0.7071067690849304,
        -0.0,
        0.0,
        0.7071067690849304
      ],
      "type": "VEC4"
    }
  ],
  "animations": [
    {
      "channels": [
        {
          "sampler": 0,
          "target": {
            "node": 4,
            "path": "scale"
          }
        },
        {
          "sampler": 1,
          "target": {
            "node": 4,
            "path": "rotation"
          }
        }
      ],
      "name": "Take 001",
      "samplers": [
        {
          "input": 4,
          "interpolation": "LINEAR",
          "output": 5
        },
        {
          "input": 6,
          "interpolation": "LINEAR",
          "output": 7
        }
      ]
    }
  ],
  "asset": {
    "extras": {
      "author": "ericsem (https://sketchfab.com/ericsem)",
      "license": "CC-BY-4.0 (http://creativecommons.org/licenses/by/4.0/)",
      "source": "https://sketchfab.com/3d-models/chanterelle-mushroom-b354bcc29da344d3b029b49eabf261f2",
      "title": "Chanterelle Mushroom"
    },
    "generator": "Sketchfab-13.74.0",
    "version": "2.0"
  },
  "bufferViews": [
    {
      "buffer": 0,
      "byteLength": 1023696,
      "name": "floatBufferViews",
      "target": 34963
    },
    {
      "buffer": 0,
      "byteLength": 465208,
      "byteOffset": 1023696,
      "byteStride": 8,
      "name": "floatBufferViews",
      "target": 34962
    },
    {
      "buffer": 0,
      "byteLength": 1395624,
      "byteOffset": 1488904,
      "byteStride": 12,
      "name": "floatBufferViews",
      "target": 34962
    },
    {
      "buffer": 0,
      "byteLength": 8,
      "byteOffset": 2884528,
      "name": "floatBufferViews"
    },
    {
      "buffer": 0,
      "byteLength": 12,
      "byteOffset": 2884536,
      "byteStride": 12,
      "name": "floatBufferViews"
    },
    {
      "buffer": 0,
      "byteLength": 16,
      "byteOffset": 2884548,
      "byteStride": 16,
      "name": "floatBufferViews"
    }
  ],
  "buffers": [
    {
      "byteLength": 2884564,
      "uri": "scene.bin"
    }
  ],
  "images": [
    {
      "uri": "textures/texturedMeshTextureAtlas_1002_baseColor.png"
    }
  ],
  "materials": [
    {
      "doubleSided": true,
      "name": "texturedMeshTextureAtlas_1002",
      "pbrMetallicRoughness": {
        "baseColorTexture": {
          "index": 0
        },
        "metallicFactor": 0.0
      }
    }
  ],
  "meshes": [
    {
      "name": "texturedMesh:TexturedMesh_texturedMesh:TextureAtlas_1002_0",
      "primitives": [
        {
          "attributes": {
            "NORMAL": 1,
            "POSITION": 0,
            "TEXCOORD_0": 2
          },
          "indices": 3,
          "material": 0,
          "mode": 4
        }
      ]
    }
  ],
  "nodes": [
    {
      "children": [
        1
      ],
      "matrix": [
        355.453857421875,
        0.0,
        0.0,
        0.0,
        0.0,
        -355.453857421875,
        -1.5785322268063728e-13,
        0.0,
        0.0,
        1.5785322268063728e-13,
        -355.453857421875,
        0.0,
        0.0,
        0.0,
        0.0,
        1.0
      ],
      "name": "Sketchfab_model"
    },
    {
      "children": [
        2
      ],
      "matrix": [
        0.009999999776482582,
        0.0,
        0.0,
        0.0,
        0.0,
        0.0,
        0.009999999776482582,
        0.0,
        0.0,
        -0.009999999776482582,
        0.0,
        0.0,
        0.0,
        0.0,
        0.0,
        1.0
      ],
      "name": "d7b76e7fa13640788ec604ed17a3697c.fbx"
    },
    {
      "children": [
        3
      ],
      "name": "Object_2"
    },
    {
      "children": [
        4
      ],
      "name": "RootNode"
    },
    {
      "children": [
        5
      ],
      "name": "texturedMesh:TexturedMesh",
      "scale": [
        9.61703109741211,
        9.61703109741211,
        9.61703109741211
      ],
      "translation": [
        -0.0035789948888123035,
        0.009712179191410542,
        0.0033757726196199656
      ]
    },
    {
      "mesh": 0,
      "name": "texturedMesh:TexturedMesh_texturedMesh:TextureAtlas_1002_0"
    }
  ],
  "samplers": [
    {
      "magFilter": 9729,
      "minFilter": 9987,
      "wrapS": 10497,
      "wrapT": 10497
    }
  ],
  "scene": 0,
  "scenes": [
    {
      "name": "Sketchfab_Scene",
      "nodes": [
        0
      ]
    }
  ],
  "textures": [
    {
      "sampler": 0,
      "source": 0
    }
  ]
}
